<svg width="327" height="327" viewBox="0 0 327 327" fill="none" xmlns="http://www.w3.org/2000/svg">
<circle cx="163.753" cy="163.725" r="89.1238" fill="white"/>
<mask id="mask0_384_714" style="mask-type:alpha" maskUnits="userSpaceOnUse" x="74" y="74" width="179" height="179">
<circle cx="163.753" cy="163.725" r="89.1238" fill="white"/>
</mask>
<g mask="url(#mask0_384_714)">
<path d="M194.543 86.5899C194.543 57.8946 185.91 29.8631 169.766 6.13971L167.886 3.37702C165.902 0.460952 161.603 0.460952 159.619 3.37702L157.739 6.13971C141.595 29.8631 132.962 57.8947 132.962 86.5899V105.073C111.892 116.158 97.5239 138.264 97.5239 163.726C97.5241 200.303 127.175 229.955 163.752 229.955C200.33 229.955 229.982 200.303 229.982 163.726C229.982 138.264 215.614 116.158 194.543 105.073V86.5899ZM201.323 97.449C202.743 99.1127 204.493 100.437 206.296 101.676C226.023 115.226 238.982 137.957 238.982 163.726C238.982 205.273 205.3 238.955 163.752 238.955C122.205 238.955 88.5241 205.273 88.5239 163.726C88.5239 137.877 101.563 115.086 121.393 101.551C123.078 100.4 124.719 99.1728 126.071 97.6437C128.774 94.5859 133.116 88.9059 133.116 83.971C133.116 53.4698 133.139 26.2928 150.298 1.07624L152.178 -1.68646L152.443 -2.06341C158.019 -9.72593 169.486 -9.72593 175.062 -2.06341L175.327 -1.68646L177.207 1.07624C194.366 26.2926 194.419 53.1286 194.419 83.63C194.419 88.5679 198.623 94.2852 201.323 97.449Z" fill="#D8D8D8"/>
</g>
<path d="M159.618 9.3765C161.602 6.46044 165.901 6.46044 167.885 9.3765L169.765 12.1392C185.909 35.8626 194.542 67.4545 194.542 86.5894V101.45C194.542 103.678 195.79 105.703 197.702 106.847C217.036 118.413 229.981 139.557 229.981 163.725C229.981 200.302 200.329 229.955 163.751 229.955C127.174 229.954 97.5231 200.302 97.5229 163.725C97.5229 139.557 110.468 118.412 129.802 106.847C131.714 105.703 132.961 103.678 132.961 101.45V86.5894C132.961 67.2302 141.594 35.8626 157.738 12.1392L159.618 9.3765Z" fill="white"/>
<circle cx="163.753" cy="163.725" r="30.5979" fill="#F3F3F3" stroke="#D8D8D8" stroke-width="9"/>
</svg>
