<svg width="24" height="24" viewBox="0 0 24 24" fill="none" xmlns="http://www.w3.org/2000/svg">
<path d="M10.1367 3.91861C10.1367 3.50782 10.4697 3.1748 10.8805 3.1748H13.1265C13.5373 3.1748 13.8703 3.50782 13.8703 3.91861V20.0819C13.8703 20.4927 13.5373 20.8257 13.1265 20.8257H10.8805C10.4697 20.8257 10.1367 20.4927 10.1367 20.0819L10.1367 3.91861Z" fill="white"/>
<path d="M20.0804 10.1338C20.4912 10.1338 20.8242 10.4668 20.8242 10.8776L20.8242 13.1236C20.8242 13.5344 20.4912 13.8674 20.0804 13.8674L3.91715 13.8674C3.50636 13.8674 3.17334 13.5344 3.17334 13.1236L3.17334 10.8776C3.17334 10.4668 3.50635 10.1338 3.91715 10.1338L20.0804 10.1338Z" fill="white"/>
</svg>
