<svg width="32" height="32" viewBox="0 0 32 32" fill="none" xmlns="http://www.w3.org/2000/svg">
<path d="M13.4883 4.47949C13.4883 3.92721 13.936 3.47949 14.4883 3.47949H17.5078C18.0601 3.47949 18.5078 3.92721 18.5078 4.47949V27.521C18.5078 28.0733 18.0601 28.521 17.5078 28.521H14.4883C13.936 28.521 13.4883 28.0733 13.4883 27.521V4.47949Z" fill="white"/>
<path d="M27.5195 13.4902C28.0718 13.4902 28.5195 13.9379 28.5195 14.4902L28.5195 17.5098C28.5195 18.0621 28.0718 18.5098 27.5195 18.5098L4.47803 18.5098C3.92574 18.5098 3.47803 18.062 3.47803 17.5098L3.47803 14.4902C3.47803 13.9379 3.92574 13.4902 4.47803 13.4902L27.5195 13.4902Z" fill="white"/>
</svg>
