<svg width="32" height="32" viewBox="0 0 32 32" fill="none" xmlns="http://www.w3.org/2000/svg">
<path fill-rule="evenodd" clip-rule="evenodd" d="M19.6777 3.88867C20.7505 3.9041 21.7717 4.34298 22.5234 5.10645L26.8594 9.45898C27.62 10.2138 28.0531 11.2367 28.0684 12.3076V24.0195C28.0683 25.1019 27.6403 26.1415 26.876 26.9092C26.1112 27.6772 25.0721 28.1102 23.9873 28.1104H8.01465C6.92982 28.1102 5.89075 27.6772 5.12598 26.9092C4.36161 26.1414 3.9337 25.1019 3.93359 24.0195V7.97949C3.93368 6.8971 4.36162 5.85759 5.12598 5.08984C5.89075 4.32184 6.92982 3.88879 8.01465 3.88867H19.6777ZM8.01465 7.48828C7.88951 7.4884 7.76758 7.53868 7.67676 7.62988C7.58583 7.72135 7.53329 7.847 7.5332 7.97949V24.0195C7.53331 24.152 7.58582 24.2777 7.67676 24.3691C7.76758 24.4603 7.88951 24.5106 8.01465 24.5107H9.62109V19.2168C9.6211 18.5792 9.83183 17.9251 10.2686 17.4072L10.4453 17.2188C10.8798 16.7975 11.471 16.5216 12.1367 16.5215H19.8652C20.6259 16.5215 21.29 16.8816 21.7334 17.4072C22.1701 17.9251 22.3818 18.5792 22.3818 19.2168V24.5107H23.9873C24.1124 24.5106 24.2344 24.4603 24.3252 24.3691C24.4161 24.2777 24.4686 24.152 24.4688 24.0195V12.3584L24.458 12.2617C24.4378 12.1668 24.3899 12.0803 24.3213 12.0127L24.3154 12.0059L24.3086 11.999L19.9736 7.64551L19.9668 7.63965L19.9609 7.63281C19.8937 7.56389 19.8086 7.51841 19.7178 7.49902L19.626 7.48828H12.7207V10.793H20.4492C21.0015 10.793 21.4492 11.2407 21.4492 11.793V12.8926C21.4492 13.4449 21.0015 13.8926 20.4492 13.8926H12.1367C11.376 13.8925 10.7119 13.5326 10.2686 13.0068C9.83184 12.4889 9.62112 11.8348 9.62109 11.1973V7.48828H8.01465ZM12.7207 24.5107H19.2822V19.6211H12.7207V24.5107Z" fill="white"/>
</svg>
