<svg width="32" height="32" viewBox="0 0 32 32" fill="none" xmlns="http://www.w3.org/2000/svg">
<path d="M22.371 6.0782C22.7615 5.68768 23.3947 5.68768 23.7852 6.0782L25.9204 8.21333C26.3109 8.60386 26.3109 9.23702 25.9204 9.62755L9.62756 25.9203C9.23703 26.3109 8.60387 26.3109 8.21335 25.9203L6.07821 23.7852C5.68769 23.3947 5.68769 22.7615 6.07821 22.371L22.371 6.0782Z" fill="white"/>
<path d="M25.9218 22.371C26.3123 22.7615 26.3123 23.3947 25.9218 23.7852L23.7867 25.9204C23.3961 26.3109 22.763 26.3109 22.3725 25.9204L6.07965 9.62756C5.68913 9.23703 5.68913 8.60387 6.07965 8.21334L8.21478 6.07821C8.60531 5.68769 9.23847 5.68769 9.629 6.07821L25.9218 22.371Z" fill="white"/>
</svg>
