<svg width="32" height="32" viewBox="0 0 32 32" fill="none" xmlns="http://www.w3.org/2000/svg">
<path d="M9.75665 4.62316C9.36617 5.01374 9.36625 5.64691 9.75683 6.03739L19.0144 15.2924C19.4049 15.6829 19.405 16.316 19.0145 16.7066L9.76046 25.9624C9.37001 26.3529 9.37002 26.986 9.76048 27.3765L12.5869 30.2032C12.9774 30.5938 13.6107 30.5938 14.0012 30.2032L27.4961 16.7066C27.8866 16.316 27.8865 15.6829 27.4959 15.2924L13.9973 1.79594C13.6068 1.40544 12.9736 1.4055 12.5831 1.79608L9.75665 4.62316Z" fill="white"/>
<path d="M7.16248 9.94334C6.7578 9.53866 6.09237 9.55323 5.7546 10.0152C4.52785 11.6933 3.80351 13.7618 3.80351 15.9996C3.80351 18.2375 4.52785 20.306 5.7546 21.984C6.09237 22.446 6.7578 22.4606 7.16248 22.0559L12.5116 16.7067C12.9022 16.3162 12.9022 15.683 12.5116 15.2925L7.16248 9.94334Z" fill="white"/>
</svg>
