<svg width="32" height="32" viewBox="0 0 32 32" fill="none" xmlns="http://www.w3.org/2000/svg">
<path d="M22.2454 4.62518C22.6358 5.01573 22.6358 5.64886 22.2452 6.03934L12.9895 15.2942C12.599 15.6847 12.599 16.318 12.9896 16.7085L22.2471 25.9643C22.6377 26.3548 22.6377 26.988 22.2472 27.3786L19.4208 30.2053C19.0303 30.5958 18.3972 30.5958 18.0066 30.2054L4.50799 16.7085C4.11742 16.318 4.1174 15.6848 4.50796 15.2942L18.0046 1.79799C18.3952 1.40744 19.0284 1.40748 19.4189 1.79808L22.2454 4.62518Z" fill="white"/>
<path d="M24.8414 9.9453C25.2461 9.54061 25.9115 9.55519 26.2493 10.0172C27.4761 11.6952 28.2004 13.7637 28.2004 16.0016C28.2004 18.2394 27.4761 20.3079 26.2493 21.9859C25.9115 22.4479 25.2461 22.4625 24.8414 22.0578L19.4923 16.7087C19.1017 16.3181 19.1017 15.685 19.4923 15.2945L24.8414 9.9453Z" fill="white"/>
</svg>
