<svg width="32" height="32" viewBox="0 0 32 32" fill="none" xmlns="http://www.w3.org/2000/svg">
<path d="M17.5702 10.3352L21.6663 14.4313M23.8926 12.1907C24.434 11.6495 24.7382 10.9153 24.7383 10.1497C24.7384 9.3841 24.4343 8.64984 23.8931 8.10842C23.3518 7.56701 22.6176 7.26279 21.852 7.2627C21.0864 7.2626 20.3522 7.56663 19.8108 8.10791L9.14401 18.7777C8.90625 19.0148 8.73042 19.3067 8.632 19.6277L7.27925 24.0843C7.25278 24.1728 7.25079 24.2669 7.27347 24.3565C7.29615 24.4461 7.34266 24.5279 7.40807 24.5932C7.47348 24.6585 7.55535 24.7049 7.64499 24.7274C7.73463 24.75 7.8287 24.7478 7.91722 24.7212L12.3748 23.3695C12.6955 23.272 12.9874 23.0972 13.2248 22.8605L23.8926 12.1907Z" stroke="white" stroke-width="2.5" stroke-linecap="round" stroke-linejoin="round"/>
</svg>
