<svg width="24" height="24" viewBox="0 0 24 24" fill="none" xmlns="http://www.w3.org/2000/svg">
<path fill-rule="evenodd" clip-rule="evenodd" d="M11.999 1.34473C12.7446 1.34473 13.4657 1.60954 14.0352 2.09082L14.042 2.0957L21.042 8.0957C21.3898 8.39111 21.6692 8.75787 21.8613 9.17188C22.0544 9.58796 22.1543 10.0413 22.1543 10.5V19.5C22.1543 20.3368 21.8212 21.1398 21.2295 21.7314C20.6378 22.323 19.8357 22.6553 18.999 22.6553H4.99902C4.16238 22.6553 3.36021 22.323 2.76855 21.7314C2.17688 21.1398 1.84375 20.3368 1.84375 19.5V10.5C1.84375 10.0413 1.94365 9.58796 2.13672 9.17188C2.32882 8.75787 2.60921 8.39111 2.95703 8.0957L9.96289 2.08984C10.5323 1.60857 11.2534 1.34473 11.999 1.34473ZM11.999 3.65527C11.802 3.65527 11.6115 3.72401 11.46 3.84961L4.45996 9.84961L4.45312 9.85449C4.35934 9.93381 4.28412 10.0331 4.23242 10.1445C4.18077 10.2559 4.1543 10.3772 4.1543 10.5V19.5C4.1543 19.724 4.24305 19.9392 4.40137 20.0977C4.55984 20.2561 4.77492 20.3457 4.99902 20.3457H7.84375V13.5C7.84375 12.9285 8.07145 12.3807 8.47559 11.9766C8.87973 11.5724 9.42748 11.3447 9.99902 11.3447H13.999C14.5706 11.3447 15.1183 11.5724 15.5225 11.9766C15.9266 12.3807 16.1543 12.9285 16.1543 13.5V20.3457H18.999C19.2231 20.3457 19.4382 20.2561 19.5967 20.0977C19.755 19.9392 19.8438 19.724 19.8438 19.5V10.5C19.8438 10.3772 19.8173 10.2559 19.7656 10.1445C19.7139 10.0331 19.6387 9.93381 19.5449 9.85449L19.5381 9.84961L12.5381 3.84961C12.3866 3.72432 12.1958 3.65527 11.999 3.65527ZM10.1543 20.3457H13.8438V13.6553H10.1543V20.3457Z" fill="white"/>
</svg>
