<svg width="24" height="24" viewBox="0 0 24 24" fill="none" xmlns="http://www.w3.org/2000/svg">
<path d="M11.999 1.34473C12.7446 1.34473 13.4657 1.60954 14.0352 2.09082L14.042 2.0957L21.042 8.0957C21.3898 8.39111 21.6692 8.75787 21.8613 9.17188C22.0544 9.58796 22.1543 10.0413 22.1543 10.5V19.5C22.1543 20.3368 21.8212 21.1398 21.2295 21.7314C20.6378 22.323 19.8357 22.6553 18.999 22.6553H4.99902C4.16238 22.6553 3.36021 22.323 2.76855 21.7314C2.17688 21.1398 1.84375 20.3368 1.84375 19.5V10.5C1.84375 10.0413 1.94365 9.58796 2.13672 9.17188C2.32882 8.75787 2.60921 8.39111 2.95703 8.0957L9.96289 2.08984C10.5323 1.60857 11.2534 1.34473 11.999 1.34473ZM10.1484 13.6562V20.0361H13.8516V13.6562H10.1484Z" fill="white"/>
</svg>
