<svg width="32" height="32" viewBox="0 0 32 32" fill="none" xmlns="http://www.w3.org/2000/svg">
<path d="M19.2031 4.88941C20.7694 4.50819 22.4147 4.6123 23.9199 5.18922C25.4253 5.76617 26.7196 6.78838 27.6299 8.1189C28.5385 9.44719 29.0217 11.0204 29.0156 12.6296L29.0088 12.9431C28.8765 16.1549 26.7367 18.4506 25.123 20.0642L25.1123 20.074L25.1025 20.0837L18.9443 26.0398C18.5846 26.4314 18.1519 26.7493 17.668 26.9714C17.1518 27.2084 16.5905 27.3331 16.0225 27.3367C15.4546 27.3402 14.8921 27.2223 14.373 26.992C13.8833 26.7745 13.4431 26.4606 13.0771 26.0701L6.89355 20.0837L6.88379 20.074L6.87305 20.0642C5.20892 18.4001 2.98067 16.0184 2.98047 12.6296V12.6287C2.98059 11.0211 3.46814 9.45136 4.37891 8.12672C5.28991 6.80195 6.58177 5.78424 8.08301 5.20875C9.58443 4.63329 11.2259 4.52653 12.7891 4.90308C13.9707 5.18778 15.0656 5.7391 15.9941 6.50758C16.9219 5.73309 18.0188 5.17768 19.2031 4.88941ZM6.48047 12.6296C6.48067 14.4235 7.63273 15.8727 9.34863 17.5886L15.5342 23.5769L15.5801 23.6209L15.6221 23.6687C15.6695 23.7218 15.7279 23.7638 15.793 23.7927C15.8583 23.8217 15.9295 23.8371 16.001 23.8367C16.0723 23.8362 16.1431 23.8206 16.208 23.7908C16.2727 23.761 16.3301 23.7175 16.377 23.6638L16.4268 23.6072L16.4805 23.5554L22.6475 17.5886C24.3618 15.8743 25.5154 14.4131 25.5156 12.6296V12.6209C25.5199 11.7197 25.25 10.8382 24.7412 10.0945C24.2324 9.35084 23.5084 8.78025 22.667 8.45777C21.8256 8.13535 20.9057 8.0767 20.0303 8.2898C19.1549 8.50297 18.3656 8.97808 17.7666 9.65113L17.7373 9.68238C17.5147 9.9204 17.2452 10.1102 16.9463 10.24C16.6472 10.3698 16.3241 10.4373 15.998 10.4373C15.672 10.4373 15.3489 10.3698 15.0498 10.24C14.7509 10.1102 14.4814 9.92041 14.2588 9.68238L14.2354 9.65699C13.634 8.98773 12.8435 8.51614 11.9688 8.30543C11.0941 8.09483 10.176 8.15437 9.33594 8.47633C8.4959 8.79829 7.77349 9.36793 7.26367 10.1091C6.75383 10.8505 6.48049 11.7299 6.48047 12.6296Z" fill="white"/>
</svg>
