<svg width="32" height="32" viewBox="0 0 32 32" fill="none" xmlns="http://www.w3.org/2000/svg">
<path d="M19.2031 4.88941C20.7694 4.50819 22.4147 4.6123 23.9199 5.18922C25.4253 5.76617 26.7196 6.78838 27.6299 8.1189C28.5385 9.44719 29.0217 11.0204 29.0156 12.6296L29.0088 12.9431C28.8765 16.1549 26.7367 18.4506 25.123 20.0642L25.1123 20.074L25.1025 20.0837L18.9443 26.0398C18.5846 26.4314 18.1519 26.7493 17.668 26.9714C17.1518 27.2084 16.5905 27.3331 16.0225 27.3367C15.4546 27.3402 14.8921 27.2223 14.373 26.992C13.8833 26.7745 13.4431 26.4606 13.0771 26.0701L6.89355 20.0837L6.88379 20.074L6.87305 20.0642C5.20892 18.4001 2.98067 16.0184 2.98047 12.6296C2.98059 11.0221 3.46814 9.45136 4.37891 8.12672C5.28991 6.80195 6.58177 5.78424 8.08301 5.20875C9.58443 4.63329 11.2259 4.52653 12.7891 4.90308C13.9707 5.18778 15.0656 5.7391 15.9941 6.50758C16.9219 5.73309 18.0188 5.17768 19.2031 4.88941Z" fill="white"/>
</svg>
