<svg width="172" height="172" viewBox="0 0 172 172" fill="none" xmlns="http://www.w3.org/2000/svg">
<path d="M83.7197 17.1016C84.6055 15.7999 86.5253 15.7999 87.4111 17.1016L88.25 18.335C95.4562 28.9247 99.3096 43.0269 99.3096 51.5684V52.0391C100.609 57.2444 104.384 61.3885 107.979 65.3779C108.299 65.7339 108.609 66.0997 108.907 66.4736L109.029 67.9795C106.869 65.23 103.665 62.3158 98.5479 59.8193H72.5537C67.4359 62.316 64.2308 65.2306 62.0703 67.9805L62.1924 66.4805C62.4922 66.1046 62.8027 65.7366 63.125 65.3789C66.7395 61.3674 70.5369 57.2 71.8164 51.9541C71.8164 51.8415 71.82 51.7277 71.8213 51.6133V51.5684C71.8213 42.9268 75.6746 28.9247 82.8809 18.335L83.7197 17.1016Z" fill="white"/>
</svg>
