<svg width="172" height="172" viewBox="0 0 172 172" fill="none" xmlns="http://www.w3.org/2000/svg">
<path d="M88.2285 18.7207C95.4344 29.3102 99.288 43.4118 99.2881 51.9531C100.568 57.1991 104.365 61.3664 107.98 65.3779C108.3 65.734 108.61 66.0996 108.908 66.4736L109.03 67.9795C106.52 64.7846 102.601 61.3661 95.9082 58.6406C88.7723 55.7342 87.1452 32.1689 87.419 20.165C87.419 19.2789 87.4398 18.4305 87.4776 17.6191L88.2285 18.7207Z" fill="url(#paint0_linear_628_677)"/>
<path d="M82.8769 18.7217C75.671 29.3112 71.8175 43.4127 71.8174 51.9541C70.5379 57.2001 66.7405 61.3674 63.126 65.3789C62.8036 65.7367 62.4932 66.1046 62.1933 66.4805L62.0713 67.9805C64.5815 64.7855 68.5009 61.3671 75.1933 58.6416C82.3292 55.7351 83.9564 32.1698 83.6826 20.166C83.6826 19.2816 83.6616 18.4348 83.624 17.625L82.8769 18.7217Z" fill="url(#paint1_linear_628_677)"/>
<defs>
<linearGradient id="paint0_linear_628_677" x1="98.2105" y1="17.6191" x2="98.2105" y2="67.9795" gradientUnits="userSpaceOnUse">
<stop stop-opacity="0"/>
<stop offset="1" stop-opacity="0.2"/>
</linearGradient>
<linearGradient id="paint1_linear_628_677" x1="72.8911" y1="17.625" x2="72.8911" y2="67.9805" gradientUnits="userSpaceOnUse">
<stop stop-opacity="0"/>
<stop offset="1" stop-opacity="0.2"/>
</linearGradient>
</defs>
</svg>
