<svg width="24" height="24" viewBox="0 0 24 24" fill="none" xmlns="http://www.w3.org/2000/svg">
<path d="M5.70703 6.49595C5.70695 6.21924 5.77988 5.94741 5.91846 5.7079C6.05704 5.46839 6.25636 5.26968 6.4963 5.13185C6.73623 4.99401 7.00829 4.92192 7.285 4.92286C7.56171 4.9238 7.83327 4.99773 8.07227 5.1372L17.5057 10.6398C17.7438 10.778 17.9414 10.9762 18.0789 11.2146C18.2163 11.4531 18.2888 11.7235 18.2891 11.9987C18.2893 12.2739 18.2173 12.5444 18.0802 12.7831C17.9432 13.0218 17.7459 13.2204 17.5081 13.3589L8.07227 18.8631C7.83327 19.0026 7.56171 19.0765 7.285 19.0775C7.00829 19.0784 6.73623 19.0063 6.4963 18.8685C6.25636 18.7306 6.05704 18.5319 5.91846 18.2924C5.77988 18.0529 5.70695 17.7811 5.70703 17.5044V6.49595Z" fill="#F6F6F6"/>
</svg>
