<svg width="24" height="24" viewBox="0 0 24 24" fill="none" xmlns="http://www.w3.org/2000/svg">
<path d="M14.627 13.7519L19.0078 9.37105L14.627 4.99023" stroke="#F6F6F6" stroke-width="2.5" stroke-linecap="round" stroke-linejoin="round"/>
<path d="M19.0078 9.37109H9.8081C9.17528 9.37109 8.54865 9.49574 7.96399 9.73791C7.37933 9.98008 6.8481 10.335 6.40063 10.7825C5.95315 11.23 5.5982 11.7612 5.35602 12.3459C5.11385 12.9305 4.98921 13.5572 4.98921 14.19C4.98921 14.8228 5.11385 15.4494 5.35602 16.0341C5.5982 16.6188 5.95315 17.15 6.40063 17.5975C6.8481 18.0449 7.37933 18.3999 7.96399 18.6421C8.54865 18.8842 9.17528 19.0089 9.8081 19.0089H12.8747" stroke="#F6F6F6" stroke-width="2.5" stroke-linecap="round" stroke-linejoin="round"/>
</svg>
