<svg width="32" height="32" viewBox="0 0 32 32" fill="none" xmlns="http://www.w3.org/2000/svg">
<path d="M14.9225 14.1343L10.608 6.66089M14.9225 17.8656L10.608 25.339M16.0012 26.784V24.6272M16.0012 5.21582V7.37264M18.1584 15.9999H26.7875M21.3943 25.339L20.3157 23.4733M21.3943 6.66089L20.3157 8.52654M5.21484 15.9999H7.37211M25.3421 21.392L23.4761 20.3136M25.3421 10.6079L23.4761 11.6863M6.66021 21.392L8.52624 20.3136M6.66021 10.6079L8.52624 11.6863" stroke="white" stroke-width="2.30773" stroke-linecap="round" stroke-linejoin="round"/>
<path d="M16.001 18.1564C17.1924 18.1564 18.1583 17.1908 18.1583 15.9996C18.1583 14.8084 17.1924 13.8428 16.001 13.8428C14.8096 13.8428 13.8438 14.8084 13.8438 15.9996C13.8438 17.1908 14.8096 18.1564 16.001 18.1564Z" stroke="white" stroke-width="2.30773" stroke-linecap="round" stroke-linejoin="round"/>
<path d="M16.0001 24.6276C20.7658 24.6276 24.6292 20.7651 24.6292 16.0003C24.6292 11.2356 20.7658 7.37305 16.0001 7.37305C11.2345 7.37305 7.37109 11.2356 7.37109 16.0003C7.37109 20.7651 11.2345 24.6276 16.0001 24.6276Z" stroke="white" stroke-width="2.30773" stroke-linecap="round" stroke-linejoin="round"/>
</svg>
