<svg width="32" height="32" viewBox="0 0 32 32" fill="none" xmlns="http://www.w3.org/2000/svg">
<path d="M18.696 22.0959L7.70788 19.0934M12.9118 11.8949C11.0558 14.6882 8.82727 15.4612 6.13888 15.9642C6.0497 15.9805 5.9663 16.0198 5.8969 16.0782C5.82751 16.1367 5.77452 16.2122 5.74315 16.2975C5.71179 16.3827 5.70313 16.4746 5.71804 16.5642C5.73295 16.6538 5.77091 16.7379 5.82817 16.8083L13.3594 25.9641C13.5123 26.1269 13.714 26.2354 13.9339 26.2733C14.1538 26.3113 14.3801 26.2765 14.5786 26.1744C16.7546 24.6809 20.1138 20.9569 20.1138 19.1099M22.5583 6.35177C22.7611 6.1486 23.0019 5.98744 23.2669 5.87748C23.5318 5.76753 23.8158 5.71094 24.1026 5.71094C24.3894 5.71094 24.6734 5.76753 24.9384 5.87748C25.2034 5.98744 25.4441 6.1486 25.647 6.35177C25.8498 6.55493 26.0106 6.79613 26.1204 7.06158C26.2301 7.32703 26.2866 7.61154 26.2866 7.89886C26.2866 8.18619 26.2301 8.47069 26.1204 8.73615C26.0106 9.0016 25.8498 9.24279 25.647 9.44596L21.513 13.5884C21.4166 13.685 21.3624 13.8161 21.3624 13.9527C21.3624 14.0894 21.4166 14.2205 21.513 14.3171L22.4843 15.2901C22.9492 15.7559 23.2104 16.3877 23.2104 17.0464C23.2104 17.7052 22.9492 18.3369 22.4843 18.8028L21.513 19.7757C21.4166 19.8724 21.2857 19.9266 21.1493 19.9266C21.0129 19.9266 20.8821 19.8724 20.7856 19.7757L12.2472 11.2229C12.1507 11.1263 12.0966 10.9952 12.0966 10.8585C12.0966 10.7219 12.1507 10.5908 12.2472 10.4942L13.2184 9.5212C13.6834 9.05544 14.314 8.79378 14.9716 8.79378C15.6291 8.79378 16.2598 9.05544 16.7247 9.5212L17.696 10.4942C17.7924 10.5908 17.9233 10.6451 18.0597 10.6451C18.1961 10.6451 18.3269 10.5908 18.4234 10.4942L22.5583 6.35177Z" stroke="white" stroke-width="2.30773" stroke-linecap="round" stroke-linejoin="round"/>
</svg>
