<svg width="32" height="32" viewBox="0 0 32 32" fill="none" xmlns="http://www.w3.org/2000/svg">
<path d="M23.5 7H8.5C7.94772 7 7.5 7.44772 7.5 8V13C7.5 13.5523 7.94772 14 8.5 14H23.5C24.0523 14 24.5 13.5523 24.5 13V8C24.5 7.44772 24.0523 7 23.5 7Z" stroke="white" stroke-width="2.31" stroke-linecap="round" stroke-linejoin="round"/>
<path d="M14.5 18H8.5C7.94772 18 7.5 18.4477 7.5 19V24C7.5 24.5523 7.94772 25 8.5 25H14.5C15.0523 25 15.5 24.5523 15.5 24V19C15.5 18.4477 15.0523 18 14.5 18Z" stroke="white" stroke-width="2.31" stroke-linecap="round" stroke-linejoin="round"/>
<path d="M23.5 18H20.5C19.9477 18 19.5 18.4477 19.5 19V24C19.5 24.5523 19.9477 25 20.5 25H23.5C24.0523 25 24.5 24.5523 24.5 24V19C24.5 18.4477 24.0523 18 23.5 18Z" stroke="white" stroke-width="2.31" stroke-linecap="round" stroke-linejoin="round"/>
</svg>
