<svg width="24" height="24" viewBox="0 0 24 24" fill="none" xmlns="http://www.w3.org/2000/svg">
<path d="M9.373 13.7519L4.99219 9.37105L9.373 4.99023" stroke="#F6F6F6" stroke-width="2.5" stroke-linecap="round" stroke-linejoin="round"/>
<path d="M4.99219 9.37109H14.1919C14.8247 9.37109 15.4514 9.49574 16.036 9.73791C16.6207 9.98008 17.1519 10.335 17.5994 10.7825C18.0468 11.23 18.4018 11.7612 18.644 12.3459C18.8861 12.9305 19.0108 13.5572 19.0108 14.19C19.0108 14.8228 18.8861 15.4494 18.644 16.0341C18.4018 16.6188 18.0468 17.15 17.5994 17.5975C17.1519 18.0449 16.6207 18.3999 16.036 18.6421C15.4514 18.8842 14.8247 19.0089 14.1919 19.0089H11.1253" stroke="#F6F6F6" stroke-width="2.5" stroke-linecap="round" stroke-linejoin="round"/>
</svg>
