<svg width="32" height="32" viewBox="0 0 32 32" fill="none" xmlns="http://www.w3.org/2000/svg">
<path d="M14.558 13.7637C15.3541 12.9679 16.6448 12.9678 17.4408 13.7637L24.0131 20.3359C24.5398 20.863 24.5399 21.717 24.0131 22.2441L23.0395 23.2178C22.5124 23.7442 21.6573 23.7445 21.1303 23.2178L18.0385 20.125V28.626C18.0384 29.3713 17.4342 29.9753 16.6889 29.9756H15.3119C14.5663 29.9756 13.9614 29.3715 13.9613 28.626V20.125L10.8686 23.2178C10.3414 23.7447 9.48653 23.7454 8.95937 23.2188L7.98574 22.2441C7.45911 21.717 7.45923 20.863 7.98574 20.3359L14.558 13.7637Z" fill="white"/>
<path d="M5.40371 7.9502C5.93093 7.42318 6.78575 7.42305 7.31289 7.9502L10.8197 11.457C11.3466 11.9842 11.3466 12.8381 10.8197 13.3652L9.84609 14.3389C9.319 14.8658 8.46414 14.8659 7.93691 14.3389L4.43008 10.832C3.90341 10.3049 3.90362 9.45088 4.43008 8.92383L5.40371 7.9502Z" fill="white"/>
<path d="M24.6859 7.9502C25.2132 7.42318 26.068 7.42305 26.5951 7.9502L27.5688 8.92383C28.0955 9.45094 28.0956 10.3049 27.5688 10.832L24.0619 14.3389C23.5348 14.866 22.6799 14.8657 22.1527 14.3389L21.1791 13.3652C20.6525 12.8381 20.6525 11.9841 21.1791 11.457L24.6859 7.9502Z" fill="white"/>
<path d="M16.6889 2.02344C17.4342 2.02374 18.0385 2.62764 18.0385 3.37305V9.11426C18.0385 9.85967 17.4342 10.4636 16.6889 10.4639H15.3119C14.5663 10.4639 13.9613 9.85984 13.9613 9.11426V3.37305C13.9613 2.62746 14.5663 2.02344 15.3119 2.02344H16.6889Z" fill="white"/>
</svg>
